<svg id="Black2" xmlns="http://www.w3.org/2000/svg" width="895.188" height="235" viewBox="0 0 895.188 235">
  <defs>
    <style>
      .cls-1, .cls-2, .cls-3 {
        fill-rule: evenodd;
      }

      .cls-2 {
        fill: #2f2f2e;
      }

      .cls-3 {
        fill: #fff;
      }
    </style>
  </defs>
  <path id="Color_Fill_6" data-name="Color Fill 6" class="cls-1" d="M711.882,91l21.991-45,19.992,7,16.994-5,2,36,17.993-32,20.992-5,14.994,8-5,36h46.982s16.743,3.536,17.993,18c1.682,19.469,4.944,95.37,2,117-2.121,15.574-19.992,17-19.992,17H27.147s-23.774.671-23.991-19c-0.337-30.6-.129-82.612,1-109C5.109,92.719,27.14,91.015,27.147,91H711.882Zm-8-68,4,10-10,12,29.988-6,17.993,3h25.99l-5-10,4-10-17.993,1-15.994-5ZM793.85,44l28.989-29,6,33-14.994-7Z" transform="translate(-3 -8)"/>
  <path id="Color_Fill_6_copy" data-name="Color Fill 6 copy" class="cls-2" d="M720,84l22-45,20,7,17-5,2,36,18-32,21-5,15,8-5,36h47s16.75,3.536,18,18c1.683,19.469,4.946,95.37,2,117-2.121,15.574-20,17-20,17H35s-23.783.671-24-19c-0.337-30.6-.129-82.612,1-109,0.954-22.281,22.993-23.985,23-24H720Zm-8-68,4,10L706,38l30-6,18,3h26l-5-10,4-10-18,1-16-5Zm90,21L831,8l6,33-15-7Z" transform="translate(-3 -8)"/>
  <path id="Color_Fill_5_copy" data-name="Color Fill 5 copy" class="cls-3" d="M864,92c0.333-4.667,14.11-1.353,20,3,7.571,5.595,8.175,27.333,5,28-1.521.319-2.564-13.878-8-21C875.09,94.256,863.826,94.431,864,92Zm-4,0c-0.485-4.2-86.925-3.148-63,0C801.016,92.528,860.437,95.784,860,92Z" transform="translate(-3 -8)"/>
</svg>
