<svg id="White" xmlns="http://www.w3.org/2000/svg" width="897.969" height="241" viewBox="0 0 897.969 241">
  <defs>
    <style>
      .cls-1 {
        fill: #b89b36;
      }

      .cls-1, .cls-2, .cls-3 {
        fill-rule: evenodd;
      }

      .cls-2 {
        fill: #f5f2e2;
      }

      .cls-3 {
        fill: #fff;
      }
    </style>
  </defs>
  <path id="Color_Fill_3_copy" data-name="Color Fill 3 copy" class="cls-1" d="M30,88.978S7.53,87.5,6,108.972c-2.087,29.292-.646,96.757-1,110.971-0.584,23.477,24,20.995,24,20.995H868.03s21.772-1.545,23-15c1.976-21.623.511-86.818-1-114.969-1.25-23.291-22-20.994-22-20.994L112,88.978l24-43.988-22-9L100,23,74,74.982,48,40.991l-20,6-15,16ZM103,19l14,14,21,9-2-36.99ZM-1,41.99l10,17,17-16,20-6L36,21l-8,2,3,5-6,1-3-4-6,2-4,5,2,3-6,5-3-4Z"/>
  <path id="Color_Fill_3_copy_2" data-name="Color Fill 3 copy 2" class="cls-2" d="M36,84s-22.47-1.479-24,20c-2.087,29.3-.646,96.782-1,111-0.584,23.483,24,21,24,21H874s21.771-1.545,23-15c1.976-21.629.511-86.842-1-115-1.25-23.3-22-21-22-21L118,84l24-44-22-9L106,18,80,70,54,36,34,42,19,58Zm73-70,14,14,21,9L142,0ZM5,37L15,54,32,38l20-6L42,16l-8,2,3,5-6,1-3-4-6,2-4,5,2,3-6,5-3-4Z"/>
  <path id="Color_Fill_5" data-name="Color Fill 5" class="cls-3" d="M864,92c0.333-4.667,14.11-1.353,20,3,7.571,5.595,8.175,27.333,5,28-1.521.319-2.564-13.878-8-21C875.09,94.256,863.826,94.431,864,92Zm-4,0c-0.485-4.2-86.925-3.148-63,0C801.016,92.528,860.437,95.784,860,92Z"/>
</svg>
